<?xml version="1.0" encoding="utf-8"?>
<!-- Generator: Adobe Illustrator 20.1.0, SVG Export Plug-In . SVG Version: 6.00 Build 0)  -->
<svg version="1.1" id="Layer_1" xmlns="http://www.w3.org/2000/svg" xmlns:xlink="http://www.w3.org/1999/xlink" x="0px" y="0px"
	 viewBox="0 0 562.3 562.3" style="enable-background:new 0 0 562.3 562.3;" xml:space="preserve">
<style type="text/css">
	.st0{fill:#414a51;}
</style>
<g>
	<path class="st0" d="M27,281.1c0,8.6-12.4,17.8-11.6,26.2c0.8,8.6,14.8,15.1,16.4,23.4c1.7,8.4-8.7,19.8-6.2,27.9
		c2.5,8.2,17.4,11.9,20.7,19.8c3.3,7.9-4.6,21.1-0.6,28.6c4,7.5,19.4,8.3,24.1,15.3c4.8,7.1-0.4,21.6,5,28.2
		c5.4,6.6,20.6,4.3,26.7,10.3c6,6,3.7,21.3,10.3,26.7c6.6,5.4,21.1,0.2,28.2,5c7.1,4.7,7.8,20.1,15.3,24.1c7.5,4,20.7-3.9,28.6-0.6
		c7.8,3.3,11.6,18.2,19.8,20.7c8.1,2.5,19.5-7.9,27.9-6.2c8.3,1.6,14.9,15.6,23.4,16.4c8.4,0.8,17.5-11.6,26.2-11.6
		c8.6,0,17.8,12.4,26.2,11.6c8.6-0.8,15.1-14.8,23.4-16.4c8.4-1.7,19.8,8.7,27.9,6.2c8.2-2.5,11.9-17.4,19.8-20.7
		c7.9-3.3,21.1,4.6,28.6,0.6c7.5-4,8.3-19.4,15.3-24.1c7.1-4.8,21.6,0.4,28.2-5c6.6-5.4,4.3-20.6,10.3-26.7c6-6,21.3-3.7,26.7-10.3
		c5.4-6.6,0.2-21.1,5-28.2c4.7-7.1,20.1-7.8,24.1-15.3c4-7.5-3.9-20.7-0.6-28.6c3.3-7.8,18.2-11.6,20.7-19.8
		c2.5-8.1-7.9-19.5-6.2-27.9c1.6-8.3,15.6-14.9,16.4-23.4c0.8-8.4-11.6-17.5-11.6-26.2c0-8.6,12.4-17.8,11.6-26.2
		c-0.8-8.6-14.8-15.1-16.4-23.4c-1.7-8.4,8.7-19.8,6.2-27.9c-2.5-8.2-17.4-11.9-20.7-19.8c-3.3-7.9,4.6-21.1,0.6-28.6
		c-4-7.5-19.4-8.3-24.1-15.3c-4.8-7.1,0.4-21.6-5-28.2c-5.4-6.6-20.6-4.3-26.7-10.3c-6-6-3.7-21.3-10.3-26.7
		c-6.6-5.4-21.1-0.2-28.2-5c-7.1-4.7-7.8-20.1-15.3-24.1c-7.5-4-20.7,3.9-28.6,0.6c-7.8-3.3-11.6-18.2-19.8-20.7
		c-8.1-2.5-19.5,7.9-27.9,6.2c-8.3-1.6-14.9-15.6-23.4-16.4c-8.4-0.8-17.5,11.6-26.2,11.6c-8.6,0-17.8-12.4-26.2-11.6
		c-8.6,0.8-15.1,14.8-23.4,16.4c-8.4,1.7-19.8-8.7-27.9-6.2c-8.2,2.5-11.9,17.4-19.8,20.7c-7.9,3.3-21.1-4.6-28.6-0.6
		c-7.5,4-8.3,19.4-15.3,24.1c-7.1,4.8-21.6-0.4-28.2,5c-6.6,5.4-4.3,20.6-10.3,26.7c-6,6-21.3,3.7-26.7,10.3
		c-5.4,6.6-0.2,21.1-5,28.2c-4.7,7.1-20.1,7.8-24.1,15.3c-4,7.5,3.9,20.7,0.6,28.6c-3.3,7.8-18.2,11.6-20.7,19.8
		c-2.5,8.1,7.9,19.5,6.2,27.9c-1.6,8.3-15.6,14.9-16.4,23.4C14.6,263.4,27,272.5,27,281.1z"/>
</g>
</svg>
